<?xml version="1.0" standalone="no"?>
<!DOCTYPE svg PUBLIC "-//W3C//DTD SVG 1.1//EN" "http://www.w3.org/Graphics/SVG/1.1/DTD/svg11.dtd">
<svg width="1.3em" height="1.3em" viewBox="0 0 256 256" xmlns="http://www.w3.org/2000/svg">
	<path fill="currentColor" fill-rule="evenodd" clip-rule="evenodd" d="M0 158.133C0 158.23 0.0102692 158.324 0.0309117 158.416C1.57042 165.286 60.112 157.24 130.785 140.428C201.47 123.663 257.503 104.486 255.969 97.6401C254.926 92.981 227.612 95.1917 188.075 102.341C187.003 102.534 184.93 105.001 182.958 107.347C181.231 109.402 179.581 111.365 178.752 111.623C168.257 114.895 157.552 117.432 141.92 121.136C137.678 122.141 133.073 123.233 128.012 124.448C113.861 127.845 104.931 129.359 96.6079 130.77C90.9825 131.723 85.6345 132.63 79.1395 134.039C77.7395 134.348 75.3979 133.227 73.179 132.165C71.1303 131.185 69.1863 130.254 68.1843 130.545C27.5464 142.293 0 153.137 0 158.133Z" />
	<path fill="currentColor" fill-rule="evenodd" clip-rule="evenodd" d="M196.437 134.038C196.611 132.799 197.002 131.603 197.59 130.508L198.616 129.082C190.083 131.483 180.777 134.008 170.871 136.599C169.421 143.923 166.315 150.79 161.807 156.645C157.299 162.499 151.515 167.176 144.925 170.295L150.368 196.657L153.204 209.731C152.82 201.819 154.165 196.503 157.241 193.781C157.531 193.505 157.841 193.253 158.169 193.026C168.845 187.303 177.949 178.898 184.638 168.587C191.327 158.276 195.385 146.394 196.437 134.038ZM130.672 201.108L125.188 174.58C118.211 174.519 111.338 172.826 105.088 169.627C98.8382 166.429 93.3752 161.809 89.1113 156.115C78.6579 158.397 68.7464 160.466 59.5729 162.284C61.0526 163.343 62.3802 164.611 63.5168 166.052C64.0534 166.888 64.6633 167.672 65.3388 168.393C71.8835 178.534 80.7605 186.849 91.1788 192.596C101.597 198.344 113.233 201.345 125.05 201.334C126.941 201.334 128.815 201.259 130.672 201.108ZM98.1407 59.7888L95.3442 46.2749C95.7171 54.1867 94.3717 59.5016 91.3081 62.2194C90.991 62.4987 90.7316 62.7424 90.524 62.9504C79.864 68.9792 70.8706 77.7086 64.3928 88.3146C57.9151 98.9206 54.1667 111.053 53.5015 123.567V123.727C51.9127 135.23 39.4804 140.409 31.9054 143.564C28.3463 145.047 25.8595 146.083 26.0733 147.118C26.4308 149.002 31.4183 151.308 38.7582 154.095C51.1605 150.422 65.777 146.369 81.9213 142.209C78.489 131.657 78.7648 120.198 82.7004 109.834C86.636 99.4702 93.981 90.8622 103.451 85.5151L98.1407 59.7888ZM162.354 64.6112C151.113 57.5618 138.207 53.8374 125.05 53.846C122.548 53.8464 120.048 53.9793 117.56 54.2442L122.842 79.7982C123.764 79.715 124.687 79.715 125.621 79.715C136.833 79.7065 147.664 83.912 156.084 91.5435C164.504 99.1751 169.936 109.709 171.361 121.172C185.095 118.266 197.694 115.776 208.649 113.791C212.483 107.694 214.691 103.439 214.317 101.62C214.105 100.597 212.342 100.892 209.761 101.324C204.124 102.267 194.584 103.864 188.774 93.8113C182.735 81.763 173.594 71.6606 162.354 64.6112Z" />
</svg>
