<?xml version="1.0" standalone="no"?>
<!DOCTYPE svg PUBLIC "-//W3C//DTD SVG 1.1//EN" "http://www.w3.org/Graphics/SVG/1.1/DTD/svg11.dtd">
<svg t="1667301052382" class="icon" viewBox="0 0 1024 1024" version="1.1" xmlns="http://www.w3.org/2000/svg" p-id="9322" width="16" height="16" xmlns:xlink="http://www.w3.org/1999/xlink">
	<path d="M106.666667 554.666667h519.253333l-147.2 146.773333a21.333333 21.333333 0 0 0 0 30.293333l30.293333 29.866667a21.333333 21.333333 0 0 0 30.293334 0l219.306666-218.88a32 32 0 0 0 9.386667-22.613333v-16.213334a32.853333 32.853333 0 0 0-9.386667-22.613333l-219.306666-218.88a21.333333 21.333333 0 0 0-30.293334 0l-30.293333 30.293333a20.906667 20.906667 0 0 0 0 29.866667L625.92 469.333333H106.666667a21.333333 21.333333 0 0 0-21.333334 21.333334v42.666666a21.333333 21.333333 0 0 0 21.333334 21.333334z m561.92-42.666667zM938.666667 746.666667v-469.333334a21.333333 21.333333 0 0 0-21.333334-21.333333h-42.666666a21.333333 21.333333 0 0 0-21.333334 21.333333v469.333334a21.333333 21.333333 0 0 0 21.333334 21.333333h42.666666a21.333333 21.333333 0 0 0 21.333334-21.333333z" p-id="9323">
	</path>
</svg>
